<?xml version="1.0" encoding="UTF-8" standalone="no"?>
<svg width="193px" height="193px" viewBox="0 0 193 193" version="1.1" xmlns="http://www.w3.org/2000/svg" xmlns:xlink="http://www.w3.org/1999/xlink">
    <!-- Generator: Sketch 3.7.2 (28276) - http://www.bohemiancoding.com/sketch -->
    <title>icon-circle-go</title>
    <desc>Created with Sketch.</desc>
    <defs></defs>
    <g id="Page-1" stroke="none" stroke-width="1" fill="none" fill-rule="evenodd">
        <g id="icon-circle-go">
            <g id="Group" transform="translate(7.000000, 7.000000)">
                <path d="M180,90 C180,139.705594 139.705594,180 90,180 C40.2944057,180 0,139.705594 0,90 C0,40.2944062 40.2944057,0 90,0 C139.705594,0 180,40.2944062 180,90 L180,90 L180,90 L180,90 Z" id="path2_fill" fill="#00B7D9"></path>
                <path d="M122.613696,116.662541 C138.847608,116.662541 150.900901,104.511405 150.900901,89.541171 L150.900901,89.346784 C150.900901,74.3767119 138.944802,62.4199631 122.808083,62.4199631 C106.574171,62.4199631 94.5202286,74.5710989 94.5202286,89.541171 L94.5202286,89.7357203 C94.5202286,104.705793 106.476977,116.662541 122.613696,116.662541 L122.613696,116.662541 L122.613696,116.662541 L122.613696,116.662541 Z" id="path2_fill-path" fill="#FFFFFF"></path>
                <path d="M54.7617548,131.244002 C64.8715024,131.244002 72.3565384,129.105258 77.2170253,124.244933 C81.5913823,119.870414 83.8271576,113.065895 83.8271576,103.733695 L83.8271576,70.1965797 C83.8271576,66.1138032 80.5220914,62.8087371 76.4393147,62.8087371 C72.3565384,62.8087371 69.0514723,66.1138032 69.0514723,70.0993862 L69.0514723,70.1965797 C65.0658894,65.8222227 60.3025962,62.4199631 52.2342368,62.4199631 C40.277488,62.4199631 29.0984495,71.168677 29.0984495,86.7222347 L29.0984495,86.9166217 C29.0984495,102.372824 40.083101,111.218893 52.2342368,111.218893 C60.1082091,111.218893 64.8715024,108.011021 69.2458594,102.76176 L69.2458594,105.289116 C69.2458594,114.621153 64.4825661,119.48164 54.3728185,119.48164 C48.8319771,119.48164 44.2630709,118.315155 39.9859074,116.370961 C39.3055529,116.07938 38.5278426,115.884831 37.5557452,115.884831 C34.2506791,115.884831 31.528774,118.606736 31.528774,121.911802 C31.528774,124.633707 33.181226,126.675095 35.708744,127.647193 C41.8329087,130.077355 47.8598798,131.244002 54.7617548,131.244002 L54.7617548,131.244002 L54.7617548,131.244002 L54.7617548,131.244002 Z" id="path2_fill-path" fill="#FFFFFF"></path>
                <path d="M43.8742969,86.9166217 C43.8742969,94.1100773 49.3179447,98.970564 56.5114002,98.970564 C63.705018,98.970564 69.2458594,94.0128837 69.2458594,86.9166217 L69.2458594,86.7222347 C69.2458594,79.6259727 63.705018,74.6682924 56.5114002,74.6682924 C49.3179447,74.6682924 43.8742969,79.6259727 43.8742969,86.7222347 L43.8742969,86.9166217 L43.8742969,86.9166217 L43.8742969,86.9166217 L43.8742969,86.9166217 Z" id="path0_fill" fill="#00B7D9"></path>
            </g>
        </g>
    </g>
</svg>